<svg width="292" height="292" viewBox="0 0 292 292" fill="none" xmlns="http://www.w3.org/2000/svg">
<path d="M50.3048 193.691C77.3336 198.745 90.2173 218.467 106.066 231.745C124.724 247.376 147.404 238.714 166.787 235.955C201.631 230.999 213.474 267.376 251.815 262.559C288.508 257.946 302.829 212.39 280.017 186.312C257.205 160.234 257.953 152.349 263.198 133.896C268.442 115.443 277.674 80.9 240.948 77.7805C209.38 75.0913 191.134 67.2739 177.229 53.6867C163.323 40.0995 112.163 2.68702 88.2899 59.52C76.8828 86.678 70.0025 96.2295 44.3737 103.198C18.745 110.167 0.827765 129.342 0.0274467 151.056C-0.731511 171.618 14.2057 186.939 50.3048 193.691Z" fill="black"/>
</svg>
